<svg xmlns="http://www.w3.org/2000/svg" viewBox="0 0 512 512"><title>bicycling</title><g id="artwork"><g id="_13_Bicycling" data-name="13_Bicycling"><path d="M133.71,329.91a20.42,20.42,0,1,1-20.41-20.42,20.42,20.42,0,0,1,20.41,20.42" style="fill:#dcd3d4"/><path d="M393,325.26a20.42,20.42,0,1,1-20.41-20.42A20.41,20.41,0,0,1,393,325.26" style="fill:#dcd3d4"/><path d="M302.4,140.09H269.9a11,11,0,0,1,0-22h32.5a11,11,0,0,1,0,22" style="fill:#dcd3d4"/><path d="M198.32,176.77l-52.13,7.13c-11.58,0-22.51-6.45-29.62-17.48C114.35,163,116.38,158,120,158h62.75c8.6,0,15.58,8.42,15.58,18.8" style="fill:#dcd3d4"/><path d="M109.22,413.47c-48.8,0-88.5-39.57-88.5-88.21s39.7-88.21,88.5-88.21,88.49,39.57,88.49,88.21-39.7,88.21-88.49,88.21m.9-160.42c-40.45,0-73.35,32.4-73.35,72.21s32.9,72.21,73.35,72.21,73.34-32.39,73.34-72.21-32.9-72.21-73.34-72.21" style="fill:#ddd3d4"/><path d="M368.68,415.1a92.49,92.49,0,1,1,92.49-92.49,92.59,92.59,0,0,1-92.49,92.49m0-169a76.49,76.49,0,1,0,76.49,76.49,76.57,76.57,0,0,0-76.49-76.49" style="fill:#ddd3d4"/><path d="M133.71,328.53a12.39,12.39,0,1,1-12.39-12.4,12.39,12.39,0,0,1,12.39,12.4" style="fill:#e08476"/><path d="M329,166a11.48,11.48,0,1,1-11.48-11.47A11.48,11.48,0,0,1,329,166" style="fill:#e23c3c"/><path d="M314.28,123.9h-32.5a11,11,0,0,1,0-22h32.5a11,11,0,0,1,0,22" style="fill:#e08476"/><path d="M209.77,163.81l-52.13,7.12c-11.59,0-22.52-6.45-29.63-17.48-2.22-3.44-.19-8.45,3.42-8.45h62.75c8.61,0,15.59,8.42,15.59,18.81" style="fill:#e23c3c"/><path d="M380.6,241.06a83.5,83.5,0,1,0,83.5,83.5,83.5,83.5,0,0,0-83.5-83.5m0,148.29a64.1,64.1,0,1,1,64.1-64.09,64.1,64.1,0,0,1-64.1,64.09" style="fill:#f3b5af"/><path d="M122.45,248.05a78.85,78.85,0,1,0,78.84,78.85,78.84,78.84,0,0,0-78.84-78.85m0,140A60.52,60.52,0,1,1,183,327.56a60.52,60.52,0,0,1-60.52,60.51" style="fill:#f3b5af"/><path d="M393,324.56a12.39,12.39,0,1,1-12.39-12.39A12.4,12.4,0,0,1,393,324.56" style="fill:#e08476"/><path d="M243,340.92a12.39,12.39,0,1,1-12.39-12.39A12.39,12.39,0,0,1,243,340.92" style="fill:#e08476"/><path d="M470.1,325.26a89.53,89.53,0,0,0-115.63-85.61L330,177.06a17.42,17.42,0,0,0-4.73-27.83,5.82,5.82,0,0,1,4.06-1.66h23.26a20.17,20.17,0,1,0,0-40.33H330.17a17,17,0,0,0-15.89-11h-32.5a17,17,0,1,0,0,34h32.5a17,17,0,0,0,15.89-11h22.44a8.17,8.17,0,1,1,0,16.33H329.35a17.85,17.85,0,0,0-17,12.62,17.47,17.47,0,0,0,5.23,34.15c.54,0,1.08,0,1.62-.09l8.66,22.18H192.56l-10.12-31L214.9,169v-5.23c0-13.68-9.68-24.8-21.59-24.8H130.57a10.08,10.08,0,0,0-8.89,5.47,12.14,12.14,0,0,0,.42,12.22c8.17,12.67,21.13,20.23,34.67,20.23h.41l13.17-1.8,11.79,36-23.45,39.42A86.19,86.19,0,0,0,79.77,403.76H63.17v12H216.28v-12H162.87a86.8,86.8,0,0,0,34.68-35.3l23.1,6.54h0a34.61,34.61,0,0,0,16.4.67l9.66,18.39-11,6.53,6.11,10.32,33-19.5-6.11-10.33-11.58,6.86-8.76-16.68a34.65,34.65,0,0,0,9.57-50.52l81.36-87.13,4,10.33a89.48,89.48,0,0,0-6.14,159.54H271.69v12H449.28v-12h-25.2a89.57,89.57,0,0,0,46-78.21m-155.82-207h-32.5a5,5,0,0,1,0-10h32.5a5,5,0,0,1,0,10m3.26,52.1a5.48,5.48,0,1,1,5.47-5.48,5.49,5.49,0,0,1-5.47,5.48m-161.16-5.41c-9.16-.14-17.71-5.18-23.61-13.92h60.54c3.85,0,7.25,3.2,8.76,7.68ZM163,266.87A74.47,74.47,0,0,1,192.68,308l-55.05,1.47Zm-41.64,135.6A74.21,74.21,0,1,1,152.51,261l-29.06,48.86-2.29.06h0a18.37,18.37,0,0,0-.85,36.72l65.38,18.5a74.24,74.24,0,0,1-64.37,37.37m6.39-74.21a6.39,6.39,0,1,1-6.39-6.39,6.4,6.4,0,0,1,6.39,6.39m63.17,25.84-54.43-15.4a20.09,20.09,0,0,0,1.32-2.25L194,343.34a73.41,73.41,0,0,1-3.1,10.76m4.57-22.68-56.11-6.87a19.24,19.24,0,0,0-1-3.13L195,319.91a74.15,74.15,0,0,1,.49,8.35c0,1.06,0,2.11-.08,3.16M169.1,256.55l18-30.25,26.54,81.11-8.63.23a86.45,86.45,0,0,0-35.91-51.09m61.11,107.79A22.69,22.69,0,0,1,229,319l1.29,0a22.69,22.69,0,0,1,0,45.37m18.87-51.77a33.46,33.46,0,0,0-3.87-2.19l8.71-25.72L267,288l3-11.63-37.09-9.5-3,11.62,12.35,3.17-8.63,25.47c-1.12-.11-2.26-.17-3.42-.17h-.16l-3.9.1-29.66-90.64h136l1.88,4.79Zm54,12.69a77.58,77.58,0,0,1,44.54-70.12l21.72,55.59a18.37,18.37,0,1,0,11.38-3.85l-21.88-56a77.49,77.49,0,1,1-55.76,74.37m71.11,0a6.39,6.39,0,1,1,6.39,6.39,6.4,6.4,0,0,1-6.39-6.39" style="fill:#142546"/><rect x="464.1" y="403.47" width="27.18" height="12" style="fill:#142546"/><rect x="22.27" y="403.76" width="27.18" height="12" style="fill:#142546"/><path d="M380.6,394.81v-12a58.21,58.21,0,0,0,11.73-115.22l2.41-11.75a70.2,70.2,0,0,1-14.14,139" style="fill:#142546"/><path d="M230.89,357.05a15.4,15.4,0,1,1,15.4-15.4,15.41,15.41,0,0,1-15.4,15.4m0-18.79a3.4,3.4,0,1,0,3.4,3.39,3.39,3.39,0,0,0-3.4-3.39" style="fill:#142546"/><path d="M122.13,392.81a64.89,64.89,0,0,1-64.67-70.94L69.41,323a52.87,52.87,0,0,0,73,53.7l4.63,11.07a64.49,64.49,0,0,1-24.94,5" style="fill:#142546"/><path d="M74,305.91l-10.91-5A64.62,64.62,0,0,1,97,268.16l4.63,11.06A52.7,52.7,0,0,0,74,305.91" style="fill:#142546"/><path d="M341.35,382.81A70.2,70.2,0,0,1,331,275l8.49,8.49a58.2,58.2,0,0,0,8.61,89.41Z" style="fill:#142546"/></g></g></svg>