<svg xmlns="http://www.w3.org/2000/svg" viewBox="0 0 512 512"><title>Skipping_Rope</title><g id="artwork"><g id="_14_skipping_rope" data-name="14_skipping_rope"><path d="M306.74,38.94c-47.56,0-86.13,38.8-86.13,86.67s38.57,86.67,86.13,86.67,86.14-38.8,86.14-86.67S354.31,38.94,306.74,38.94Zm-16.6,82.5A47.32,47.32,0,0,1,323,76.3a49.66,49.66,0,0,1-2.08,89.57A47.34,47.34,0,0,1,290.14,121.44Z" style="fill:#dcd3d4"/><rect x="71.51" y="324.84" width="53.32" height="149.79" rx="22.25" style="fill:#dcd3d4"/><polyline points="110.28 316.3 110.28 282.86 147.03 282.86 147.03 316.3" style="fill:#e08476"/><rect x="102.31" y="309.4" width="53.32" height="149.79" rx="22.25" style="fill:#f4b4b1"/><rect x="102.3" y="393.07" width="53.32" height="24.77" style="fill:#fff"/><rect x="244.82" y="324.84" width="53.32" height="149.79" rx="22.25" style="fill:#dcd3d4"/><polyline points="282.21 316.3 282.21 282.86 318.96 282.86 318.96 316.3" style="fill:#e08476"/><rect x="275.62" y="309.4" width="53.32" height="149.79" rx="22.25" style="fill:#f4b4b1"/><rect x="275.62" y="393.92" width="53.32" height="24.77" style="fill:#fff"/><path d="M415.54,91.94s12.91,52-23.54,82-59.46,23-59.46,23,28,26.42,70.5.71,34.5-71.71,28.5-85.71S415.54,91.94,415.54,91.94Z" style="fill:#c6b4b8"/><path d="M300.58,47.48s-71,7.05-59,93.76c0,0,12,53.2,70.5,52.2h0s-36.42-18.67-43.65-66.5C268.39,126.94,259.62,92,300.58,47.48Z" style="fill:#c6b4b8"/><path d="M115.88,282.86h23.33V202.28s3.33-39.67,27.33-71,47-49.34,87-58.67c0,0,20.34-23,36.34-28.33,0,0-63.54-.73-109.67,34-20.38,15.34-34.15,35.06-43.42,53.73A184.51,184.51,0,0,0,118,208.81Z" style="fill:#ddd3d4"/><path d="M340.94,43.36a75.28,75.28,0,1,0,75.28,75.28A75.36,75.36,0,0,0,340.94,43.36Zm0,123.55a48.28,48.28,0,1,1,48.28-48.27A48.32,48.32,0,0,1,340.94,166.91Z" style="fill:#ded3d4"/><path d="M319,197.94s-29.08,2.61-29.08,50.06v34.86H312V241.39a59.78,59.78,0,0,1,13.46-38.18c2.35-2.83,4.77-5.14,7-6.27Z" style="fill:#ddd3d4"/><path d="M408.13,74.18a82,82,0,0,0-68.39-36.81H285.62c-96.22,0-174.5,78.28-174.5,174.5v65h-6.54v34.82a28.18,28.18,0,0,0-8.28,20V437a28.27,28.27,0,0,0,28.24,28.24h8.83A28.28,28.28,0,0,0,161.62,437V331.65a28.16,28.16,0,0,0-8.29-20V276.86h-7.62V216c0-60.77,42.54-118,99.44-137.18A83.09,83.09,0,0,0,270,189.19v.1h.14a82.77,82.77,0,0,0,29.2,12.65A46.47,46.47,0,0,0,284.44,236v40.87h-6.55v34.82a28.18,28.18,0,0,0-8.28,20V437a28.27,28.27,0,0,0,28.24,28.24h8.83A28.28,28.28,0,0,0,334.93,437V331.65a28.14,28.14,0,0,0-8.29-20V276.86h-6.77V236a36.7,36.7,0,0,1,12.54-27.52A77.54,77.54,0,0,0,408.13,74.18ZM246.6,131a33,33,0,0,0,14.23-3.71,80.42,80.42,0,0,0,3,15.28c-3.89,5.72-7.89,8.31-10.68,9.49A70.63,70.63,0,0,1,246.6,131Zm-30.46-52.4a160.09,160.09,0,0,0-13.92,8.71c-7.17-1-11.42-3.5-13.78-5.57a163.86,163.86,0,0,1,18.24-11.82A30.63,30.63,0,0,0,216.14,78.56Zm1.36-14.2a160.69,160.69,0,0,1,19.69-7.62,31.7,31.7,0,0,0,10.59,8.7,145.75,145.75,0,0,0-17.34,6.13C223.29,69.76,219.44,66.61,217.5,64.36ZM328.89,173a54.55,54.55,0,0,0,19.37.89,34.05,34.05,0,0,0,3.65,13.35,68.26,68.26,0,0,1-19.77.25C328.83,181,328.52,176.05,328.89,173Zm-55.57-42.64a69.09,69.09,0,0,1-.88-10.93,68,68,0,0,1,.71-9.74c6.15-5.4,11.38-6.87,14.64-7.15a55.8,55.8,0,0,0-2.38,16.13c0,.84,0,1.67.06,2.5A30.6,30.6,0,0,0,273.32,130.33ZM322,53.47c6.52,3.31,9.92,7.07,11.69,10a55.31,55.31,0,0,0-19.19,6.28,30.73,30.73,0,0,0-13.38-6.07A68.5,68.5,0,0,1,322,53.47ZM360.23,171a55.47,55.47,0,0,0,13.88-7.48,37.12,37.12,0,0,0,6.34,12.16,68.34,68.34,0,0,1-16.54,8.52C360.18,178,360,173.29,360.23,171Zm39.53-87.21A68.1,68.1,0,0,1,408.44,106c-4.86,4.41-9.15,6-12,6.45a55.37,55.37,0,0,0-5-17.66A32.13,32.13,0,0,0,399.76,83.74Zm-5.61,51.89a55.06,55.06,0,0,0,2.35-11.16,32.23,32.23,0,0,0,13.25-4.58,68.24,68.24,0,0,1-2.58,18.18C400.33,138.63,396.13,136.84,394.15,135.63Zm-4.89,11a32,32,0,0,0,13.23,3.52,69.13,69.13,0,0,1-12.84,17.81c-5.86-7.88-5.43-14.07-5.43-14.07A55.27,55.27,0,0,0,389.26,146.59Zm1.79-74.23c-1.45,6.23-4,10-6,12.07a56,56,0,0,0-11.7-11.2,32.07,32.07,0,0,0,.56-14.15A68.91,68.91,0,0,1,391.05,72.36Zm-28.71-5.21a55.15,55.15,0,0,0-15.72-3.94,31,31,0,0,0-7.86-12.41c.78,0,1.56-.06,2.35-.06a68.25,68.25,0,0,1,18.47,2.55C362.29,59.3,362.66,64,362.34,67.15Zm-73.68,8c7.41-.85,12.34.51,15.33,2a55.86,55.86,0,0,0-11.08,13.62,29.3,29.3,0,0,0-15.08,2A68.78,68.78,0,0,1,288.66,75.15Zm8.75,43.49a43.7,43.7,0,1,1,43.7,43.7A43.74,43.74,0,0,1,297.41,118.64ZM296,52.56a81.3,81.3,0,0,0-24.48,26.12C264.08,85,258,85.89,255,85.79A71.58,71.58,0,0,1,296,52.56ZM249.85,97.13a23.15,23.15,0,0,0,5.51.62,30.82,30.82,0,0,0,8.41-1.23,79.91,79.91,0,0,0-3.06,16.67c-6.6,5.1-11.95,5.88-14.82,5.82A70.82,70.82,0,0,1,249.85,97.13Zm37.59,36.38a55.45,55.45,0,0,0,6.84,15.24,30.75,30.75,0,0,0-6,14.47,68.51,68.51,0,0,1-10.45-17.13C280.84,138.85,284.69,135.25,287.44,133.51Zm12.78,41c-1.12-8,.44-13.15,2-16.07A55.83,55.83,0,0,0,317.44,169a32.34,32.34,0,0,0,.57,15A68.34,68.34,0,0,1,300.22,174.52Zm101.59-1.58c4.74,5.07,5.9,9.52,6.16,11.81A65.56,65.56,0,0,1,387.45,198a41.38,41.38,0,0,0,1.95-13.33A82.26,82.26,0,0,0,401.81,172.94Zm7.24-9.75a81.39,81.39,0,0,0,8.68-18.4c5.71,3.8,7.73,7.84,8.4,9.78a65.31,65.31,0,0,1-9.06,19.54A39,39,0,0,0,409.05,163.19Zm19.44-26c0,.25,0,.49,0,.74a42.37,42.37,0,0,0-7.78-5.34,81.15,81.15,0,0,0,0-26.39A65.42,65.42,0,0,1,428.49,137.19Zm-166-79.31a30.42,30.42,0,0,1-11.87-4.7,162.23,162.23,0,0,1,22.74-3.35A83.91,83.91,0,0,0,262.48,57.88ZM123.12,238a31.82,31.82,0,0,0,10.59-4v15.79a26.18,26.18,0,0,1-10.59,7.08Zm10.59-22v2.9a25.67,25.67,0,0,1-10.59,6.87V211.87c0-2.57.07-5.12.18-7.65a33.67,33.67,0,0,0,11.13-2.57C134,206.42,133.71,211.21,133.71,216Zm3-29.32a27.71,27.71,0,0,1-12.35,5.44,161.38,161.38,0,0,1,3.55-19.28,31.69,31.69,0,0,0,5.36.46,35.68,35.68,0,0,0,7-.73Q138.12,179.57,136.67,186.69Zm8.63-28.32c-6.11,2.79-10.85,3.2-14.1,2.88a161.42,161.42,0,0,1,7.4-18.55A31.1,31.1,0,0,0,151,145.12h.54Q148.08,151.62,145.3,158.37Zm13.95-26.51c-7.37,2.12-12.37,1.2-15.12.18a161.89,161.89,0,0,1,11.81-18,32.43,32.43,0,0,0,12.86,4.62Q163.68,125.07,159.25,131.86Zm-9.63,199.79v55.42H108.3V331.65a16.27,16.27,0,0,1,16.24-16.25h8.83A16.27,16.27,0,0,1,149.62,331.65Zm0,67.42v12.76H108.3V399.07Zm-16.25,54.12h-8.83A16.26,16.26,0,0,1,108.3,437V423.83h41.32V437A16.27,16.27,0,0,1,133.37,453.19Zm0-149.79h-8.83a28.31,28.31,0,0,0-8,1.15V288.86h24.75v15.69A28.26,28.26,0,0,0,133.37,303.4Zm-10.25-26.54v-7.61a32.09,32.09,0,0,0,10.59-4.1v11.71Zm56.15-170c-7.69.89-12.73-.6-15.69-2.14a163.37,163.37,0,0,1,15.49-15.42,32.37,32.37,0,0,0,11.22,7.25Q184.58,101.41,179.27,106.84Zm80.1,55.47a34.37,34.37,0,0,0,9.52-7,81.29,81.29,0,0,0,10.41,15.88,18.13,18.13,0,0,1-6.42,5.27A71.48,71.48,0,0,1,259.37,162.31Zm28.36,17.49A80.41,80.41,0,0,0,303,190.47a70.78,70.78,0,0,1-19.17-6.86A32.19,32.19,0,0,0,287.73,179.8ZM307.87,236v10.06a32.33,32.33,0,0,0-11.43,4.53v-13c4.58-5.2,8.86-7.41,11.92-8.34A47.15,47.15,0,0,0,307.87,236Zm15.06,95.66v55.42H281.61V331.65a16.27,16.27,0,0,1,16.24-16.25h8.83A16.27,16.27,0,0,1,322.93,331.65Zm0,67.42v12.76H281.61V399.07Zm-16.25,54.12h-8.83A16.26,16.26,0,0,1,281.61,437V423.83h41.32V437A16.27,16.27,0,0,1,306.68,453.19Zm0-149.79h-8.83a28.31,28.31,0,0,0-8,1.15V288.86h24.75v15.69A28.31,28.31,0,0,0,306.68,303.4Zm-10.24-26.54V266.14c4.37-4.73,8.43-6.87,11.43-7.81v18.53ZM312,216.62a28.62,28.62,0,0,0-11.29,2.79A34.7,34.7,0,0,1,321,202.91,49.38,49.38,0,0,0,312,216.62ZM348,201a81.54,81.54,0,0,0,28.47-8.32c-1.63,6.42-4.73,9.42-4.73,9.42A65.24,65.24,0,0,1,348,201Z" style="fill:#142546"/></g></g></svg>