<?xml version="1.0" encoding="utf-8"?>
<!-- Generator: Adobe Illustrator 22.0.0, SVG Export Plug-In . SVG Version: 6.00 Build 0)  -->
<svg version="1.1" id="Layer_1" xmlns="http://www.w3.org/2000/svg" xmlns:xlink="http://www.w3.org/1999/xlink" x="0px" y="0px"
	 viewBox="0 0 500 500" style="enable-background:new 0 0 500 500;" xml:space="preserve">
<style type="text/css">
	.st0{fill:#FDDF7F;}
	.st1{fill:#ECF4F7;}
	.st2{fill:#83E1E5;}
	.st3{fill:#1C1D21;}
	.st4{fill:#AAB1BA;}
</style>
<g>
	<path class="st2" d="M222.747,273.815c-6.231-4.716-13.992-7.514-22.411-7.514h-69.059c-31.896,0-57.753,25.857-57.753,57.753
		v12.219h114.002l-11.384-11.384c-7.341-7.341-7.426-19.19-0.255-26.635c7.395-7.678,19.964-7.445,27.501,0.092l12.423,12.423
		c-0.565-3.076-0.875-6.242-0.875-9.483C214.936,291.206,217.8,281.797,222.747,273.815z"/>
</g>
<g>
	<path class="st0" d="M372.032,332.818h-63.24c6.647-8.763,10.597-19.684,10.597-31.531c0-28.844-23.383-52.226-52.227-52.226
		c-28.844,0-52.227,23.383-52.227,52.226c0,3.24,0.31,6.406,0.875,9.483l-12.423-12.423c-7.537-7.537-20.106-7.77-27.501-0.092
		c-7.171,7.445-7.086,19.294,0.255,26.635l27.128,27.128c4.927,4.927,11.61,7.695,18.578,7.695h150.631
		c7.51,0,13.583-6.157,13.445-13.699C385.788,338.61,379.437,332.818,372.032,332.818z"/>
</g>
<g>
	<path class="st4" d="M423.941,359.695h-49.738c-0.116,0.003-0.229,0.017-0.346,0.017h-1.378H238.663h-16.816
		c-6.968,0-13.651-2.768-18.578-7.695l-15.744-15.744H73.524v33.939c0,16.108,13.058,29.165,29.165,29.165h321.253
		c10.958,0,19.841-8.883,19.841-19.841S434.899,359.695,423.941,359.695z"/>
</g>
<g>
	<path class="st0" d="M423.941,359.695h-23.337v39.683h23.337c10.958,0,19.841-8.883,19.841-19.841S434.899,359.695,423.941,359.695
		z"/>
</g>
<path class="st3" d="M171.795,111.598c0-2.762,2.239-5,5-5h5.975v-5.975c0-2.762,2.239-5,5-5s5,2.238,5,5v5.975h5.974
	c2.761,0,5,2.238,5,5s-2.239,5-5,5h-5.974v5.975c0,2.762-2.239,5-5,5s-5-2.238-5-5v-5.975h-5.975
	C174.034,116.598,171.795,114.359,171.795,111.598z M125.808,116.598h5.975v5.975c0,2.762,2.239,5,5,5s5-2.238,5-5v-5.975h5.975
	c2.761,0,5-2.238,5-5s-2.239-5-5-5h-5.975v-5.975c0-2.762-2.239-5-5-5s-5,2.238-5,5v5.975h-5.975c-2.761,0-5,2.238-5,5
	S123.046,116.598,125.808,116.598z M147.076,354.712h-3.008c-2.761,0-5,2.238-5,5s2.239,5,5,5h3.008c2.761,0,5-2.238,5-5
	S149.837,354.712,147.076,354.712z M8.657,394.377H5c-2.761,0-5,2.238-5,5s2.239,5,5,5h3.657c2.761,0,5-2.238,5-5
	S11.418,394.377,8.657,394.377z M477.377,399.377c0,2.762-2.238,5-5,5h-48.436H102.688H27.345c-2.761,0-5-2.238-5-5s2.239-5,5-5
	H78.56c-6.197-6.188-10.037-14.736-10.037-24.165v-33.938v-12.22c0-34.603,28.151-62.753,62.753-62.753h69.059
	c7.507,0,14.704,1.937,21.086,5.639c10.452-13.883,27.064-22.879,45.741-22.879c31.555,0,57.227,25.672,57.227,57.227
	c0,4.721-0.578,9.415-1.717,13.953c-0.57,2.27-2.607,3.783-4.846,3.783c-0.403,0-0.813-0.049-1.222-0.151
	c-2.678-0.673-4.304-3.389-3.632-6.067c0.939-3.742,1.416-7.617,1.416-11.518c0-26.041-21.186-47.227-47.227-47.227
	s-47.227,21.186-47.227,47.227c0,2.339,0.193,4.718,0.554,7.091l18.999,18.999c0.28,0.279,0.668,0.44,1.066,0.44h131.478
	c10.234,0,18.708,8.122,18.89,18.105c0.057,3.106-0.649,6.104-2.032,8.784l11.63-0.004c0.029,0,0.055-0.008,0.084-0.008
	s0.055,0.008,0.084,0.008l27.837-0.008c9.176,0,20.257,11.081,20.257,24.842c0,5.559-1.836,10.697-4.933,14.841h28.527
	C475.139,394.377,477.377,396.615,477.377,399.377z M199.852,301.882c-2.729-2.729-6.524-4.288-10.43-4.288
	c-0.046,0-0.092,0.001-0.138,0.001c-3.788,0.035-7.267,1.502-9.796,4.128c-5.26,5.461-5.175,14.267,0.188,19.631l27.128,27.128
	c4.018,4.018,9.36,6.23,15.042,6.23H370.59l1.9,0c2.281-0.003,4.418-0.901,6.017-2.53c1.601-1.63,2.459-3.788,2.417-6.076
	c-0.083-4.57-4.072-8.288-8.892-8.288H240.554c-3.073,0-5.963-1.196-8.136-3.369L199.852,301.882z M78.523,331.273h96.932
	l-2.85-2.85c-9.19-9.19-9.333-24.28-0.32-33.639c4.407-4.575,10.41-7.129,16.904-7.19c0.077,0,0.153-0.001,0.23-0.001
	c6.541,0,12.909,2.623,17.503,7.218l3.119,3.119c0.468-8.049,2.612-15.65,6.08-22.474c-4.794-2.716-10.171-4.156-15.786-4.156
	h-69.059c-29.088,0-52.753,23.665-52.753,52.753V331.273z M395.604,364.704l-23.114,0.007c-0.004,0-0.008,0-0.012,0H221.847
	c-8.354,0-16.208-3.253-22.114-9.16l-14.278-14.278H78.523v13.438h47.031c2.761,0,5,2.238,5,5s-2.239,5-5,5H78.523v5.5
	c0,13.324,10.84,24.165,24.165,24.165h292.916V364.704z M438.782,379.536c0-8.426-6.835-14.842-10.255-14.842l-22.923,0.007v29.676
	h18.337C432.125,394.377,438.782,387.72,438.782,379.536z M495,394.377h-3.889c-2.762,0-5,2.238-5,5s2.238,5,5,5H495
	c2.762,0,5-2.238,5-5S497.762,394.377,495,394.377z"/>
</svg>
