<?xml version="1.0" encoding="utf-8"?>
<!-- Generator: Adobe Illustrator 22.0.0, SVG Export Plug-In . SVG Version: 6.00 Build 0)  -->
<svg version="1.1" id="Layer_1" xmlns="http://www.w3.org/2000/svg" xmlns:xlink="http://www.w3.org/1999/xlink" x="0px" y="0px"
	 viewBox="0 0 500 500" style="enable-background:new 0 0 500 500;" xml:space="preserve">
<style type="text/css">
	.st0{fill:#FDDF7F;}
	.st1{fill:#ECF4F7;}
	.st2{fill:#83E1E5;}
	.st3{fill:#1C1D21;}
	.st4{fill:#AAB1BA;}
</style>
<g>
	<path class="st4" d="M282.917,314.386c-22.229-18.899-52.885-24.668-80.552-14.982h-0.001c-11.484,4.021-23.843,4.856-35.764,2.417
		l-122.49-25.062l-6.493,31.736l164.085,55.354c4.48,1.512,9.05,2.744,13.682,3.692l22.35,4.573h33.371L282.917,314.386z"/>
</g>
<g>
	<path class="st2" d="M407.514,355.634c0-1.511,0.077-3.004,0.226-4.475l-90.299-18.476c-12.104-2.477-23.316-8.17-32.456-16.481
		c-0.68-0.619-1.37-1.223-2.068-1.817l-11.812,57.73h102.289c7.528,0,13.631,6.103,13.631,13.631c0,0.111-0.014,0.219-0.017,0.33
		c0.003,0.11,0.017,0.218,0.017,0.329c0,6.728-5.122,12.258-11.68,12.906c12.343,0.481,24.666-2.295,35.687-8.166l9.059-4.826
		C412.317,378.424,407.514,367.591,407.514,355.634z"/>
</g>
<g>
	<path class="st0" d="M22.752,272.389c-8-1.637-15.813,3.522-17.45,11.522c-1.496,7.31,2.69,14.589,9.76,16.975l22.556,7.609
		l6.493-31.736L22.752,272.389z"/>
</g>
<g>
	<circle class="st0" cx="451.257" cy="355.634" r="43.743"/>
</g>
<g>
	<path class="st0" d="M373.395,399.377H181.853c-7.528,0-13.631-6.103-13.631-13.631v0c0-7.528,6.103-13.631,13.631-13.631h191.542
		c7.528,0,13.631,6.103,13.631,13.631v0C387.026,393.274,380.923,399.377,373.395,399.377z"/>
</g>
<path class="st3" d="M358.357,131.243c0-2.762,2.238-5,5-5h5.974v-5.975c0-2.762,2.238-5,5-5s5,2.238,5,5v5.975h5.975
	c2.762,0,5,2.238,5,5s-2.238,5-5,5h-5.975v5.975c0,2.762-2.238,5-5,5s-5-2.238-5-5v-5.975h-5.974
	C360.596,136.243,358.357,134.005,358.357,131.243z M310.923,116.598h5.975v5.975c0,2.762,2.238,5,5,5s5-2.238,5-5v-5.975h5.975
	c2.762,0,5-2.238,5-5s-2.238-5-5-5h-5.975v-5.975c0-2.762-2.238-5-5-5s-5,2.238-5,5v5.975h-5.975c-2.762,0-5,2.238-5,5
	S308.161,116.598,310.923,116.598z M500,355.634c0,26.877-21.866,48.743-48.743,48.743c-12.214,0-23.384-4.526-31.946-11.976
	l-5.927,3.157c-10.856,5.784-23.005,8.807-35.307,8.807c-0.975,0-1.95-0.02-2.927-0.058c-0.036-0.001-0.069-0.012-0.105-0.014
	c-0.544,0.048-1.093,0.083-1.65,0.083H181.853h-59.359c-2.762,0-5-2.238-5-5s2.238-5,5-5h42.863
	c-1.357-2.583-2.135-5.516-2.135-8.631c0-10.273,8.357-18.631,18.631-18.631h85.172l10.388-50.772
	c-4.211-3.312-8.725-6.135-13.449-8.471l-6.019,24.661c-0.558,2.284-2.603,3.815-4.854,3.815c-0.393,0-0.791-0.046-1.189-0.144
	c-2.683-0.654-4.326-3.36-3.672-6.043l6.389-26.176c-16.182-5.518-34.042-5.661-50.602,0.137
	c-12.333,4.316-25.616,5.216-38.419,2.597L48.008,282.66l-2.067,10.101l-2.539,12.409l133.853,45.155
	c2.616,0.882,4.021,3.719,3.139,6.336c-0.882,2.616-3.719,4.022-6.336,3.139L36.019,313.232c-0.001,0-0.002-0.001-0.003-0.001
	l-22.553-7.608c-9.442-3.185-15.057-12.949-13.06-22.714c1.06-5.179,4.072-9.634,8.482-12.546c4.41-2.911,9.692-3.933,14.869-2.872
	l21.358,4.369c0.003,0,0.006,0.002,0.009,0.003l122.48,25.06c11.032,2.257,22.481,1.482,33.109-2.237
	c20.166-7.061,42.04-6.324,61.402,1.417c0.26,0.087,0.512,0.186,0.748,0.31c8.36,3.433,16.242,8.168,23.293,14.164
	c0.741,0.63,1.475,1.272,2.196,1.93c8.468,7.699,18.874,12.983,30.092,15.279l85.202,17.433
	c4.785-21.887,24.31-38.327,47.611-38.327C478.134,306.891,500,328.757,500,355.634z M16.659,296.148l17.194,5.799l4.357-21.292
	l-16.461-3.367h-0.001c-0.66-0.135-1.323-0.202-1.981-0.202c-1.896,0-3.753,0.554-5.371,1.623c-2.182,1.44-3.672,3.644-4.196,6.205
	C9.213,289.743,11.989,294.573,16.659,296.148z M181.853,394.377h191.542c4.661,0,8.462-3.717,8.616-8.342
	c0-0.03-0.001-0.061,0-0.091c0.001-0.086,0.007-0.171,0.012-0.256c-0.001-0.139-0.014-0.275-0.021-0.413
	c-0.008-0.154-0.012-0.31-0.028-0.461c-0.015-0.136-0.041-0.268-0.062-0.401c-0.023-0.15-0.042-0.302-0.074-0.449
	c-0.028-0.133-0.067-0.262-0.101-0.392c-0.038-0.144-0.07-0.289-0.115-0.429c-0.042-0.13-0.093-0.255-0.14-0.382
	c-0.05-0.136-0.096-0.273-0.153-0.405c-0.054-0.125-0.118-0.246-0.178-0.368c-0.062-0.127-0.12-0.257-0.188-0.381
	c-0.066-0.12-0.142-0.233-0.213-0.35c-0.073-0.119-0.142-0.241-0.221-0.357c-0.078-0.115-0.166-0.223-0.25-0.334
	c-0.082-0.109-0.16-0.221-0.247-0.325c-0.091-0.11-0.191-0.212-0.288-0.317c-0.089-0.098-0.175-0.199-0.269-0.292
	c-0.103-0.102-0.213-0.194-0.32-0.291c-0.097-0.088-0.19-0.18-0.292-0.263c-0.112-0.093-0.233-0.176-0.35-0.262
	c-0.104-0.078-0.205-0.16-0.313-0.232c-0.124-0.083-0.255-0.156-0.383-0.233c-0.109-0.065-0.214-0.136-0.326-0.197
	c-0.138-0.074-0.282-0.137-0.424-0.205c-0.109-0.052-0.215-0.109-0.327-0.157c-0.155-0.065-0.315-0.118-0.474-0.174
	c-0.106-0.038-0.208-0.082-0.316-0.115c-0.163-0.051-0.332-0.087-0.499-0.128c-0.109-0.027-0.215-0.061-0.326-0.083
	c-0.179-0.037-0.362-0.058-0.544-0.083c-0.104-0.014-0.205-0.036-0.309-0.047c-0.289-0.029-0.582-0.044-0.878-0.044H271.122
	c-0.004,0-0.007,0.001-0.011,0.001c-0.003,0-0.006-0.001-0.01-0.001h-89.248c-4.759,0-8.631,3.872-8.631,8.631
	S177.094,394.377,181.853,394.377z M412.231,384.842c-4.807-6.397-7.927-13.824-9.141-21.715c-0.015-0.097-0.027-0.195-0.042-0.293
	c-0.094-0.639-0.176-1.281-0.246-1.925c-0.022-0.208-0.043-0.417-0.063-0.627c-0.053-0.564-0.096-1.13-0.129-1.698
	c-0.013-0.217-0.029-0.433-0.039-0.65c-0.036-0.764-0.059-1.53-0.059-2.299c0-0.146,0.001-0.293,0.002-0.44l-86.076-17.611
	c-11.057-2.262-21.431-7.033-30.319-13.906l-8.888,43.439h96.162c10.273,0,18.631,8.357,18.631,18.631
	c0,0.112-0.003,0.223-0.009,0.333c0.005,0.095,0.009,0.21,0.009,0.326c0,2.373-0.454,4.641-1.286,6.719
	c6.243-1.235,12.295-3.382,17.943-6.392L412.231,384.842z M490,355.634c0-21.363-17.38-38.743-38.743-38.743
	c-20.517,0-37.349,16.032-38.652,36.225c-0.011,0.177-0.031,0.353-0.041,0.53c-0.033,0.659-0.05,1.322-0.05,1.989
	c0,0.657,0.017,1.311,0.05,1.96c0.007,0.151,0.023,0.3,0.033,0.451c0.031,0.502,0.064,1.004,0.115,1.501
	c0.013,0.13,0.033,0.258,0.047,0.388c0.058,0.522,0.12,1.044,0.199,1.56c0.011,0.073,0.026,0.145,0.037,0.218
	c0.091,0.576,0.191,1.149,0.308,1.717c0.001,0.007,0.003,0.013,0.004,0.02c3.625,17.63,19.264,30.928,37.951,30.928
	C472.62,394.377,490,376.997,490,355.634z M248.155,356.574c2.251,0,4.296-1.531,4.854-3.815l0.842-3.449
	c0.654-2.683-0.989-5.389-3.672-6.043c-2.681-0.657-5.389,0.989-6.043,3.672l-0.842,3.449c-0.654,2.683,0.989,5.389,3.672,6.043
	C247.364,356.528,247.763,356.574,248.155,356.574z M101.686,394.365h-5.428c-2.762,0-5,2.238-5,5s2.238,5,5,5h5.428
	c2.762,0,5-2.238,5-5S104.447,394.365,101.686,394.365z"/>
</svg>
